<svg width="40" height="40" viewBox="0 0 40 40" fill="none" xmlns="http://www.w3.org/2000/svg">
<path d="M40 38.0416L37.63 40L20.4595 23.7454C20.1693 23.4843 19.7501 23.0437 19.2019 22.4235C18.686 21.8033 18.4281 21.0037 18.4281 20.0245C18.4281 19.0453 18.686 18.2456 19.2019 17.6255C19.7501 17.0053 20.2177 16.4994 20.6046 16.1077L37.63 0L40 2.00734L27.4728 19.9755L40 38.0416ZM21.5719 38.0416L19.2019 40L2.03144 23.7454C1.74123 23.4843 1.32205 23.0437 0.773881 22.4235C0.257961 21.8033 0 21.0037 0 20.0245C0 19.0453 0.241838 18.2619 0.725514 17.6744C1.24143 17.0869 1.72511 16.5647 2.17654 16.1077L19.2019 0L21.5719 2.00734L9.04474 19.9755L21.5719 38.0416Z" fill="#FFB084"/>
</svg>
