<svg width="40" height="40" viewBox="0 0 40 40" fill="none" xmlns="http://www.w3.org/2000/svg">
<path d="M40 20.0245C40 21.069 39.7259 21.9013 39.1778 22.5214C38.6296 23.1089 38.2265 23.5169 37.9686 23.7454L20.7981 40L18.4281 38.0416L30.9553 19.9755L18.4281 2.00734L20.7981 0L37.8235 16.1077C38.1782 16.4341 38.6296 16.9727 39.1778 17.7234C39.7259 18.4415 40 19.2085 40 20.0245ZM21.5719 20.0245C21.5719 21.069 21.2979 21.9013 20.7497 22.5214C20.2015 23.1089 19.7985 23.5169 19.5405 23.7454L2.37001 40L0 38.0416L12.5272 19.9755L0 2.00734L2.37001 0L19.3954 16.1077C19.7179 16.4015 20.1532 16.9074 20.7013 17.6255C21.2817 18.3109 21.5719 19.1106 21.5719 20.0245Z" fill="#FFB084"/>
</svg>
