<svg width="42" height="40" viewBox="0 0 42 40" fill="none" xmlns="http://www.w3.org/2000/svg">
<path fill-rule="evenodd" clip-rule="evenodd" d="M6.73778 0H6.73788C7.34786 0 7.84234 0.498202 7.84234 1.11277V3.24758H13.3123V1.11277C13.3123 0.498202 13.8068 0 14.4168 0H14.4169C15.0268 0 15.5213 0.498202 15.5213 1.11277V3.24758H20.9913V1.11277C20.9913 0.498202 21.4858 0 22.0957 0H22.0958C22.7058 0 23.2003 0.498202 23.2003 1.11277V3.24758H28.6703V1.11277C28.6703 0.498202 29.1648 0 29.7747 0H29.7748C30.3848 0 30.8793 0.498202 30.8793 1.11277V3.24758H31.6161C34.3925 3.24758 36.6418 5.5138 36.6418 8.31109V9.04783C36.6418 9.73072 36.0924 10.2842 35.4147 10.2842H1.22715C0.549356 10.2842 0 9.73072 0 9.04783V8.31109C0 5.5138 2.2493 3.24758 5.02573 3.24758H5.63331V1.11277C5.63331 0.498202 6.1278 0 6.73778 0ZM1.22715 12.7519C0.549356 12.7519 0 13.3055 0 13.9883V33.1877C0 35.985 2.2493 38.2512 5.02573 38.2512H27.9564C25.077 34.7929 25.2511 29.6293 28.4789 26.3773C30.6933 24.1463 33.8006 23.3632 36.6418 24.0282V13.9883C36.6418 13.3055 36.0924 12.7519 35.4147 12.7519H1.22715ZM5.308 17.5539H7.38557C8.29555 17.5539 9.03324 18.2972 9.03324 19.214V21.3072C9.03324 22.224 8.29555 22.9672 7.38557 22.9672H5.308C4.39802 22.9672 3.66032 22.224 3.66032 21.3072V19.214C3.66032 18.2972 4.39802 17.5539 5.308 17.5539ZM5.308 25.9519H7.38557C8.29555 25.9519 9.03324 26.6951 9.03324 27.612V29.7051C9.03324 30.622 8.29555 31.3652 7.38557 31.3652H5.308C4.39802 31.3652 3.66032 30.622 3.66032 29.7051V27.612C3.66032 26.6951 4.39802 25.9519 5.308 25.9519ZM15.3855 17.5539H13.2198C12.3099 17.5539 11.5722 18.2972 11.5722 19.214V21.3072C11.5722 22.224 12.3099 22.9672 13.2198 22.9672H15.3855C16.2955 22.9672 17.0331 22.224 17.0331 21.3072V19.214C17.0331 18.2972 16.2955 17.5539 15.3855 17.5539ZM13.2198 25.9519H15.3855C16.2955 25.9519 17.0331 26.6951 17.0331 27.612V29.7051C17.0331 30.622 16.2955 31.3652 15.3855 31.3652H13.2198C12.3099 31.3652 11.5722 30.622 11.5722 29.7051V27.612C11.5722 26.6951 12.3099 25.9519 13.2198 25.9519ZM23.2973 17.5539H21.2198C20.3098 17.5539 19.5721 18.2972 19.5721 19.214V21.3072C19.5721 22.224 20.3098 22.9672 21.2198 22.9672H23.2973C24.2073 22.9672 24.945 22.224 24.945 21.3072V19.214C24.945 18.2972 24.2073 17.5539 23.2973 17.5539ZM21.2198 25.9519H23.2973C24.2073 25.9519 24.945 26.6951 24.945 27.612V29.7051C24.945 30.622 24.2073 31.3652 23.2973 31.3652H21.2198C20.3098 31.3652 19.5721 30.622 19.5721 29.7051V27.612C19.5721 26.6951 20.3098 25.9519 21.2198 25.9519ZM31.2091 17.5539H29.1316C28.2216 17.5539 27.4839 18.2972 27.4839 19.214V21.3072C27.4839 22.224 28.2216 22.9672 29.1316 22.9672H31.2091C32.1191 22.9672 32.8568 22.224 32.8568 21.3072V19.214C32.8568 18.2972 32.1191 17.5539 31.2091 17.5539ZM29.4641 27.3699C32.3319 24.4806 36.9815 24.4806 39.8492 27.3699C42.7169 30.2592 42.7169 34.9437 39.8492 37.833C36.9815 40.7223 32.3319 40.7223 29.4641 37.833C26.5964 34.9437 26.5964 30.2592 29.4641 27.3699ZM34.6703 28.4856C34.9505 28.4856 35.1776 28.7144 35.1776 28.9967V32.8541L38.1322 34.6298C38.3728 34.7744 38.4515 35.0881 38.308 35.3306C38.1645 35.573 37.853 35.6523 37.6124 35.5077L34.4104 33.5833C34.2569 33.4911 34.163 33.3244 34.163 33.1444V28.9967C34.163 28.7144 34.3901 28.4856 34.6703 28.4856Z" fill="#FFB084"/>
</svg>
