<svg width="42" height="40" viewBox="0 0 42 40" fill="none" xmlns="http://www.w3.org/2000/svg">
<path fill-rule="evenodd" clip-rule="evenodd" d="M16.3125 0C13.1097 0 10.5115 2.60296 10.5115 5.82009V8.71973H5.80599C3.76596 8.71973 1.97298 9.77658 0.939417 11.3689C0.499491 12.0467 0.687273 12.9542 1.35976 13.4L15.521 22.7848C16.0428 23.131 16.6551 23.3158 17.2805 23.3157H24.7194C25.3456 23.3157 25.9574 23.1309 26.479 22.7848L40.6401 13.4C41.3127 12.9542 41.5005 12.0467 41.0605 11.3688C40.027 9.77648 38.234 8.71973 36.194 8.71973H31.5407V5.82009C31.5407 2.60294 28.9425 0 25.7396 0H16.3125ZM13.4411 8.71973H28.6111V5.82009C28.6111 4.23154 27.3283 2.94211 25.7396 2.94211H16.3125C14.724 2.94211 13.4411 4.23151 13.4411 5.82009V8.71973ZM28.2585 25.4942L28.2607 25.4928L39.7284 17.8929C39.9492 17.7466 40.2054 17.6631 40.4696 17.6512C40.7339 17.6394 40.9964 17.6996 41.2294 17.8255C41.4623 17.9514 41.657 18.1383 41.7926 18.3664C41.9283 18.5944 42 18.8551 42 19.1208V34.1693C42 37.3904 39.4015 40 36.194 40H5.80599C2.59848 40 3.89663e-08 37.3904 3.89663e-08 34.1693V19.1208C-6.09806e-05 18.8551 0.0715446 18.5943 0.207209 18.3662C0.342874 18.1381 0.537531 17.9512 0.770502 17.8253C1.00347 17.6993 1.26606 17.6392 1.53036 17.6511C1.79466 17.663 2.05081 17.7466 2.27159 17.893L13.7412 25.4941C14.7913 26.1905 16.022 26.5617 17.2805 26.5615H24.7194C25.9779 26.5617 27.2084 26.1906 28.2585 25.4942ZM4.89402 37.3863L7.53243 34.7366C7.62852 34.6401 7.78431 34.6401 7.8804 34.7366C7.97649 34.8331 7.97648 34.9896 7.8804 35.0861L5.24198 37.7358C5.14589 37.8323 4.99011 37.8323 4.89402 37.7358C4.79793 37.6393 4.79793 37.4828 4.89402 37.3863ZM7.05308 37.3863L9.69149 34.7366C9.78758 34.6401 9.94337 34.6401 10.0395 34.7366C10.1355 34.8331 10.1355 34.9896 10.0395 35.0861L7.40104 37.7358C7.30495 37.8323 7.14917 37.8323 7.05308 37.7358C6.95699 37.6393 6.95699 37.4828 7.05308 37.3863ZM11.9854 34.7366L9.34694 37.3863C9.25085 37.4828 9.25085 37.6393 9.34694 37.7358C9.44303 37.8323 9.59882 37.8323 9.6949 37.7358L12.3333 35.0861C12.4294 34.9896 12.4294 34.8331 12.3333 34.7366C12.2372 34.6401 12.0814 34.6401 11.9854 34.7366Z" fill="#FFB084"/>
</svg>
