<svg width="38" height="38" viewBox="0 0 38 38" fill="none" xmlns="http://www.w3.org/2000/svg">
<path fill-rule="evenodd" clip-rule="evenodd" d="M0 6.26698C0 7.07683 0.656545 7.73347 1.46639 7.73347H36.5335C37.3435 7.73347 38 7.07683 38 6.26698V5.37711C38 2.40743 35.5926 0 32.6229 0H5.37701C2.40733 0 0 2.40743 0 5.37711V6.26698ZM38 11.3163C38 10.5063 37.3435 9.84977 36.5335 9.84977H1.46639C0.656545 9.84977 0 10.5063 0 11.3163V32.623C0 35.5927 2.40733 38 5.37701 38H32.6229C35.5926 38 38 35.5927 38 32.623V11.3163ZM10.6091 3.66657C10.4648 4.20513 10.799 4.76262 11.3555 4.91174C11.9121 5.06087 12.4802 4.74517 12.6245 4.2066C12.7688 3.66804 12.4347 3.11055 11.8781 2.96143C11.3216 2.8123 10.7534 3.128 10.6091 3.66657ZM34.091 4.7125C33.9976 5.06121 33.6905 5.28192 33.4052 5.20546C33.1199 5.12901 32.9643 4.78434 33.0577 4.43563C33.1512 4.08692 33.4582 3.86621 33.7436 3.94267C34.0289 4.01913 34.1845 4.36379 34.091 4.7125ZM3.44627 36.048L5.9874 33.5069C6.07991 33.4144 6.2299 33.4144 6.32242 33.5069L6.32249 33.507C6.415 33.5995 6.415 33.7495 6.32249 33.842L3.78136 36.3831C3.68885 36.4757 3.53886 36.4757 3.44634 36.3831L3.44627 36.3831C3.35376 36.2906 3.35376 36.1406 3.44627 36.048ZM8.06661 33.5069L5.52548 36.048C5.43297 36.1406 5.43297 36.2906 5.52548 36.3831L5.52555 36.3831C5.61807 36.4757 5.76806 36.4757 5.86057 36.3831L8.4017 33.842C8.49421 33.7495 8.49421 33.5995 8.4017 33.507L8.40163 33.5069C8.30912 33.4144 8.15912 33.4144 8.06661 33.5069ZM7.73457 36.048L10.2757 33.5069C10.3682 33.4144 10.5182 33.4144 10.6107 33.5069L10.6108 33.507C10.7033 33.5995 10.7033 33.7495 10.6108 33.842L8.06967 36.3831C7.97715 36.4757 7.82716 36.4757 7.73465 36.3831L7.73457 36.3831C7.64206 36.2906 7.64206 36.1406 7.73457 36.048ZM20.8832 15.0089C21.6219 15.2142 22.0544 15.9794 21.8491 16.7181L18.6015 28.4073C18.3963 29.146 17.631 29.5785 16.8923 29.3732C16.1536 29.168 15.7211 28.4027 15.9263 27.664L19.174 15.9749C19.3792 15.2362 20.1445 14.8037 20.8832 15.0089ZM14.1366 17.3127C14.6788 17.8548 14.6788 18.7338 14.1366 19.276L11.2219 22.1907L14.1367 25.1055C14.6788 25.6476 14.6788 26.5266 14.1366 27.0688C13.5945 27.6109 12.7155 27.6109 12.1733 27.0687L8.277 23.1723C7.73487 22.6302 7.73487 21.7512 8.27702 21.209L12.1734 17.3127C12.7155 16.7705 13.5945 16.7705 14.1366 17.3127ZM23.8626 17.3127C24.4048 16.7705 25.2838 16.7705 25.8259 17.3127L29.7223 21.209C30.2644 21.7512 30.2644 22.6302 29.7223 23.1723L25.826 27.0687C25.2838 27.6109 24.4048 27.6109 23.8627 27.0688C23.3205 26.5266 23.3205 25.6476 23.8626 25.1055L26.7774 22.1907L23.8627 19.276C23.3205 18.7338 23.3205 17.8548 23.8626 17.3127Z" fill="#FFB084"/>
</svg>
