<svg width="24" height="20" viewBox="0 0 24 20" fill="none" xmlns="http://www.w3.org/2000/svg">
<path fill-rule="evenodd" clip-rule="evenodd" d="M23.8996 2.90621L20.6066 18.0922L20.6061 18.0946C20.4625 18.7663 20.1205 19.4963 19.3536 19.8341C18.5865 20.172 17.7998 19.9388 17.2138 19.623C17.1722 19.6006 17.1322 19.5755 17.094 19.5479L12.8093 16.4511L11.0511 18.1241L11.0482 18.1268C11.0383 18.1362 11.0275 18.1465 11.0158 18.1577C10.8973 18.2706 10.6907 18.4676 10.4338 18.6177C10.1066 18.8088 9.73229 18.9132 9.29289 18.9132C8.99688 18.9132 8.71408 18.7952 8.51176 18.5872C8.30943 18.3792 8.20566 18.0998 8.2251 17.8155L8.56345 12.8684C8.56341 12.7886 8.57303 12.7079 8.59299 12.6277C8.64872 12.4038 8.77803 12.2118 8.95265 12.0731L11.3312 9.97265L7.39793 12.401C7.13018 12.5662 6.79992 12.6083 6.49672 12.5158L1.52994 10.9997L1.52747 10.9989C1.16793 10.8907 0.79823 10.7216 0.506984 10.4521C0.19675 10.165 -0.0464809 9.73329 0.00754765 9.20781C0.0578123 8.71894 0.346224 8.35104 0.629582 8.10587C0.918894 7.85553 1.28537 7.65794 1.68653 7.50027L1.70045 7.4948L21.0403 0.197365C21.7835 -0.119376 22.7044 -0.0879333 23.3634 0.535398C24.0067 1.14378 24.1142 2.04556 23.8996 2.90621ZM21.846 2.10607L18.8639 3.23129C19.0165 3.23141 19.1821 3.25184 19.349 3.30791C19.5152 3.36373 19.7284 3.47136 19.9034 3.67546C20.0917 3.89498 20.1855 4.16937 20.1748 4.44837C20.1561 4.93306 19.842 5.25415 19.6762 5.39883L10.6755 13.3474L10.5119 15.7404L11.9613 14.3613C12.3385 14.0023 12.932 13.9636 13.3562 14.2701L18.3153 17.8544C18.3656 17.8793 18.4079 17.8971 18.4424 17.9097C18.4637 17.8571 18.488 17.7819 18.51 17.6783L18.5108 17.6748L21.8081 2.46915C21.8106 2.45746 21.8134 2.4458 21.8163 2.4342C21.8299 2.38105 21.846 2.10607 21.846 2.10607ZM17.3783 3.79187L2.89752 9.25594L6.66508 10.406L17.3783 3.79187Z" fill="#FFB084"/>
</svg>
