<svg width="61" height="40" viewBox="0 0 61 40" fill="none" xmlns="http://www.w3.org/2000/svg">
<path fill-rule="evenodd" clip-rule="evenodd" d="M40 22H37C34.2386 22 32 19.7614 32 17V11C32 8.23857 34.2386 6 37 6H40V3C40 1.89543 39.1046 1 38 1H32C31.001 1 30.1731 1.7324 30.024 2.68952C27.0768 0.97924 23.6528 0 20 0C8.9543 0 0 8.9543 0 20C0 31.0457 8.9543 40 20 40C23.6528 40 27.0768 39.0208 30.024 37.3105C30.1731 38.2676 31.001 39 32 39H38C39.1046 39 40 38.1046 40 37V25V22ZM37 9L40 9H43V3C43 1.89543 43.8954 1 45 1H51C52.1046 1 53 1.89543 53 3V9H59C60.1046 9 61 9.89543 61 11V17C61 18.1046 60.1046 19 59 19H53V25C53 26.1046 52.1046 27 51 27H45C43.8954 27 43 26.1046 43 25V19H40H37C35.8954 19 35 18.1046 35 17V11C35 9.89543 35.8954 9 37 9ZM30 20C30 25.5228 25.5228 30 20 30C14.4772 30 10 25.5228 10 20C10 14.4772 14.4772 10 20 10C25.5228 10 30 14.4772 30 20Z" fill="white"/>
</svg>
