<svg width="30" height="18" viewBox="0 0 30 18" fill="none" xmlns="http://www.w3.org/2000/svg">
<path fill-rule="evenodd" clip-rule="evenodd" d="M0.490161 0.558733C0.91931 0.12723 1.51066 0 2.08191 0H5.13922C5.68293 0 6.23788 0.118158 6.7002 0.529037C7.11209 0.895084 7.32641 1.39224 7.4799 1.82418C8.20159 3.84671 9.16991 5.73786 10.0706 7.10826C10.4403 7.67073 10.7864 8.12673 11.0864 8.46207V4.58706C11.0389 3.82809 10.8213 3.48254 10.6435 3.24964C10.5895 3.17897 10.5354 3.11446 10.4684 3.03463L10.4599 3.02451C10.3972 2.94969 10.3122 2.84843 10.2349 2.74074C10.0672 2.50718 9.87253 2.15972 9.87253 1.69061C9.87253 0.777814 10.6516 0 11.6844 0H16.4886C16.9883 0 17.5865 0.135677 17.9914 0.668268C18.3365 1.12222 18.3843 1.67917 18.3843 2.09561V7.28235C18.4252 7.24393 18.4687 7.2026 18.5149 7.15815C19.5243 6.06624 20.409 4.6563 21.0525 3.48514C21.373 2.90187 21.627 2.39009 21.8003 2.02537C21.8869 1.84321 21.9531 1.69828 21.9971 1.60012C22.0191 1.55105 22.0356 1.5137 22.0462 1.48928L22.0579 1.46251L22.0604 1.45668L22.0608 1.4557L22.0669 1.44158C22.2097 1.12058 22.4434 0.744603 22.8451 0.45235C23.2586 0.151515 23.7666 0 24.3454 0H27.4004C27.9878 0 28.6952 0.14106 29.1252 0.733164C29.5401 1.30451 29.447 1.95731 29.3203 2.37453C29.1763 2.95367 28.8115 3.68029 28.4235 4.36715C28.0031 5.11132 27.4866 5.92563 26.9906 6.67344C26.4931 7.42339 26.009 8.11741 25.6497 8.6233C25.4699 8.87652 25.3209 9.08325 25.2166 9.22705C25.1644 9.29897 25.1234 9.35519 25.0952 9.39367L25.0699 9.42825C25.047 9.46361 25.0275 9.49427 25.0104 9.5219C25.0146 9.52724 25.019 9.53277 25.0236 9.53849C25.0323 9.5492 25.0407 9.56009 25.0489 9.57113C25.1431 9.69786 25.4013 9.94624 25.8372 10.3573L25.8395 10.3594C26.2259 10.7238 26.7024 11.1731 27.0935 11.6166C27.7527 12.3318 28.3495 13.0108 28.8216 13.6257C29.2813 14.2246 29.6847 14.8406 29.8787 15.4189C29.8818 15.4282 29.8848 15.4376 29.8877 15.4471C30.068 16.0431 30.0775 16.7697 29.5652 17.3414C29.0909 17.8707 28.3981 18 27.8368 18H24.7819C24.3402 18 23.9361 17.9118 23.5492 17.7169C23.1839 17.5329 22.8798 17.276 22.6062 17.0118C22.3866 16.7998 22.1462 16.5422 21.8882 16.2657C21.8298 16.2031 21.7706 16.1396 21.7104 16.0755C21.3759 15.7185 20.9817 15.3048 20.485 14.8261C19.3194 13.7453 18.6946 13.3862 18.3948 13.2671V15.8416C18.3948 16.2975 18.3214 17.0449 17.5668 17.5323C16.9813 17.9104 16.1485 18 15.1782 18C11.5373 18 7.69419 15.8902 5.01804 12.1936C3.07972 9.57713 1.83566 7.26678 1.07271 5.49337C0.691264 4.60672 0.428172 3.84985 0.25876 3.2519C0.097785 2.68373 0 2.18589 0 1.8469C0 1.52099 0.0609195 0.990327 0.490161 0.558733ZM23.3745 8.26547L23.384 8.25246L23.4141 8.21143C23.4407 8.1751 23.4801 8.12117 23.5305 8.05167C23.6313 7.91264 23.7763 7.71149 23.9517 7.46454C24.3028 6.97008 24.774 6.29459 25.256 5.56786C25.7395 4.83899 26.2266 4.06945 26.6135 3.3846C26.953 2.78368 27.1725 2.32088 27.2707 2.02817H24.3454C24.1502 2.02817 24.089 2.07302 24.0787 2.08057C24.0585 2.09527 24.0163 2.13511 23.9657 2.24721L23.9635 2.25236L23.9482 2.28757C23.935 2.31772 23.916 2.36102 23.8912 2.41628C23.8416 2.52676 23.7693 2.68519 23.6758 2.88187C23.489 3.27481 23.2171 3.82258 22.8741 4.4469C22.1945 5.6836 21.2091 7.27064 20.0256 8.54432C20.0128 8.55802 19.9997 8.57138 19.9862 8.58438C19.33 9.21716 18.7135 9.78021 17.8363 9.78021C16.7827 9.78021 16.3153 8.77639 16.3153 7.92418V2.09561C16.3153 2.07144 16.315 2.04899 16.3145 2.02817H12.2951C12.2967 2.03018 12.2982 2.03219 12.2998 2.03421C12.6985 2.55641 13.0849 3.28475 13.1538 4.50136C13.1548 4.52007 13.1554 4.53881 13.1554 4.55755V8.89048C13.1554 9.35685 13.1252 9.88756 12.8843 10.3062C12.7368 10.5627 12.5158 10.7724 12.2258 10.8984C11.965 11.0117 11.7157 11.0272 11.5541 11.0272C11.1345 11.0272 10.7801 10.8517 10.5393 10.699C10.2801 10.5348 10.0303 10.318 9.79621 10.0818C9.32608 9.6074 8.82544 8.95838 8.33142 8.20676C7.33961 6.69781 6.30048 4.66185 5.52671 2.49315L5.52625 2.49186C5.46279 2.31323 5.41125 2.19663 5.36813 2.11863C5.34604 2.07868 5.3296 2.05522 5.31987 2.04275C5.29569 2.03717 5.2408 2.02817 5.13922 2.02817H2.09164C2.09519 2.04923 2.09922 2.07187 2.10378 2.09612C2.1329 2.25116 2.18062 2.45621 2.25228 2.70915C2.39546 3.21451 2.62808 3.88933 2.9791 4.70525C3.68063 6.33592 4.84753 8.51255 6.69542 11.0063L6.70235 11.0156C9.07695 14.2981 12.3429 15.9718 15.1782 15.9718C15.6321 15.9718 15.9459 15.9468 16.1604 15.9101C16.231 15.898 16.285 15.8855 16.3255 15.8744C16.3257 15.8643 16.3258 15.8534 16.3258 15.8416V13.2029C16.3258 12.9659 16.3379 12.7228 16.3836 12.495C16.4296 12.2656 16.5217 11.9885 16.7291 11.7405C17.1801 11.201 17.8381 11.1803 18.1598 11.1803C19.0455 11.1803 20.0807 11.658 21.9144 13.3597L21.9282 13.3728C22.4641 13.889 22.8872 14.3332 23.2342 14.7035C23.3042 14.7782 23.3699 14.8486 23.432 14.9151C23.6867 15.1879 23.8805 15.3954 24.0579 15.5668C24.2743 15.7756 24.4035 15.867 24.4949 15.913C24.5647 15.9482 24.6404 15.9718 24.7819 15.9718H27.8368C27.853 15.9718 27.8683 15.9716 27.8828 15.9712C27.7808 15.7213 27.556 15.3502 27.1684 14.8452C26.7506 14.301 26.1999 13.6721 25.5506 12.9679L25.5345 12.95C25.2156 12.5874 24.8069 12.1999 24.403 11.819C24.3802 11.7976 24.3571 11.7758 24.3338 11.7539C23.9976 11.4373 23.6088 11.0712 23.3902 10.7834C23.1072 10.4299 22.8435 9.9763 22.8906 9.40872C22.9291 8.94441 23.1809 8.55881 23.3182 8.34863C23.3258 8.337 23.3331 8.32591 23.3399 8.31537C23.3509 8.29842 23.3625 8.28174 23.3745 8.26547C23.3745 8.26546 23.3745 8.26547 23.3745 8.26547Z" fill="#FFB084"/>
</svg>
